<?xml version="1.0" encoding="utf-8"?>
<!-- Generator: Circuit Diagram, cdlibrary.dll 4.0.0.0 -->
<!DOCTYPE svg PUBLIC "-//W3C//DTD SVG 1.1//EN" "http://www.w3.org/Graphics/SVG/1.1/DTD/svg11.dtd">
<svg version="1.1" width="660" height="420" xmlns="http://www.w3.org/2000/svg">
	<line x1="90" y1="380" x2="90" y2="390" style="stroke:rgb(0, 0, 0);stroke-linecap:square;stroke-width:2" />
	<line x1="90" y1="330" x2="90" y2="380" style="stroke:rgb(0, 0, 0);stroke-linecap:square;stroke-width:2" />
	<line x1="90" y1="390" x2="470" y2="390" style="stroke:rgb(0, 0, 0);stroke-linecap:square;stroke-width:2" />
	<line x1="470" y1="370" x2="470" y2="390" style="stroke:rgb(0, 0, 0);stroke-linecap:square;stroke-width:2" />
	<line x1="90" y1="270" x2="90" y2="320" style="stroke:rgb(0, 0, 0);stroke-linecap:square;stroke-width:2" />
	<line x1="90" y1="270" x2="280" y2="270" style="stroke:rgb(0, 0, 0);stroke-linecap:square;stroke-width:2" />
	<line x1="280" y1="170" x2="280" y2="270" style="stroke:rgb(0, 0, 0);stroke-linecap:square;stroke-width:2" />
	<line x1="280" y1="170" x2="300" y2="170" style="stroke:rgb(0, 0, 0);stroke-linecap:square;stroke-width:2" />
	<line x1="210" y1="320" x2="290" y2="320" style="stroke:rgb(0, 0, 0);stroke-linecap:square;stroke-width:2" />
	<line x1="290" y1="180" x2="290" y2="320" style="stroke:rgb(0, 0, 0);stroke-linecap:square;stroke-width:2" />
	<line x1="290" y1="180" x2="300" y2="180" style="stroke:rgb(0, 0, 0);stroke-linecap:square;stroke-width:2" />
	<line x1="210" y1="180" x2="210" y2="190" style="stroke:rgb(0, 0, 0);stroke-linecap:square;stroke-width:2" />
	<line x1="90" y1="170" x2="90" y2="200" style="stroke:rgb(0, 0, 0);stroke-linecap:square;stroke-width:2" />
	<line x1="90" y1="200" x2="300" y2="200" style="stroke:rgb(0, 0, 0);stroke-linecap:square;stroke-width:2" />
	<line x1="210" y1="170" x2="210" y2="180" style="stroke:rgb(0, 0, 0);stroke-linecap:square;stroke-width:2" />
	<line x1="210" y1="190" x2="300" y2="190" style="stroke:rgb(0, 0, 0);stroke-linecap:square;stroke-width:2" />
	<line x1="40" y1="130" x2="40" y2="310" style="stroke:rgb(0, 0, 0);stroke-linecap:square;stroke-width:2" />
	<line x1="40" y1="310" x2="90" y2="310" style="stroke:rgb(0, 0, 0);stroke-linecap:square;stroke-width:2" />
	<line x1="40" y1="160" x2="90" y2="160" style="stroke:rgb(0, 0, 0);stroke-linecap:square;stroke-width:2" />
	<line x1="40" y1="130" x2="80" y2="130" style="stroke:rgb(0, 0, 0);stroke-linecap:square;stroke-width:2" />
	<line x1="80" y1="130" x2="300" y2="130" style="stroke:rgb(0, 0, 0);stroke-linecap:square;stroke-width:2" />
	<line x1="270" y1="150" x2="270" y2="310" style="stroke:rgb(0, 0, 0);stroke-linecap:square;stroke-width:2" />
	<line x1="210" y1="310" x2="270" y2="310" style="stroke:rgb(0, 0, 0);stroke-linecap:square;stroke-width:2" />
	<line x1="270" y1="120" x2="300" y2="120" style="stroke:rgb(0, 0, 0);stroke-linecap:square;stroke-width:2" />
	<line x1="270" y1="120" x2="270" y2="150" style="stroke:rgb(0, 0, 0);stroke-linecap:square;stroke-width:2" />
	<line x1="210" y1="160" x2="270" y2="160" style="stroke:rgb(0, 0, 0);stroke-linecap:square;stroke-width:2" />
	<text x="150" y="290" style="font-family:Arial;font-size:11px;text-anchor:middle" dominant-baseline="middle" transform="rotate(0, 150, 290)">Joystick</text>
	<rect x="100" y="300" width="100" height="40" style="fill-opacity:0;fill:rgb(0, 0, 0);stroke:rgb(0, 0, 0);stroke-width:2" />
	<line x1="90" y1="310" x2="100" y2="310" style="stroke:rgb(0, 0, 0);stroke-linecap:square;stroke-width:2" />
	<text x="104" y="310" style="font-family:Arial;font-size:11px;text-anchor:start" dominant-baseline="middle" transform="rotate(0, 104, 310)">GND</text>
	<line x1="200" y1="310" x2="210" y2="310" style="stroke:rgb(0, 0, 0);stroke-linecap:square;stroke-width:2" />
	<text x="196" y="310" style="font-family:Arial;font-size:11px;text-anchor:end" dominant-baseline="middle" transform="rotate(0, 196, 310)">+5V</text>
	<line x1="90" y1="320" x2="100" y2="320" style="stroke:rgb(0, 0, 0);stroke-linecap:square;stroke-width:2" />
	<text x="104" y="320" style="font-family:Arial;font-size:11px;text-anchor:start" dominant-baseline="middle" transform="rotate(0, 104, 320)">VRx</text>
	<line x1="200" y1="320" x2="210" y2="320" style="stroke:rgb(0, 0, 0);stroke-linecap:square;stroke-width:2" />
	<text x="196" y="320" style="font-family:Arial;font-size:11px;text-anchor:end" dominant-baseline="middle" transform="rotate(0, 196, 320)">VRy</text>
	<line x1="90" y1="330" x2="100" y2="330" style="stroke:rgb(0, 0, 0);stroke-linecap:square;stroke-width:2" />
	<text x="104" y="330" style="font-family:Arial;font-size:11px;text-anchor:start" dominant-baseline="middle" transform="rotate(0, 104, 330)">SW</text>
	<text x="150" y="140" style="font-family:Arial;font-size:11px;text-anchor:middle" dominant-baseline="middle" transform="rotate(0, 150, 140)">Joystick</text>
	<rect x="100" y="150" width="100" height="40" style="fill-opacity:0;fill:rgb(0, 0, 0);stroke:rgb(0, 0, 0);stroke-width:2" />
	<line x1="90" y1="160" x2="100" y2="160" style="stroke:rgb(0, 0, 0);stroke-linecap:square;stroke-width:2" />
	<text x="104" y="160" style="font-family:Arial;font-size:11px;text-anchor:start" dominant-baseline="middle" transform="rotate(0, 104, 160)">GND</text>
	<line x1="200" y1="160" x2="210" y2="160" style="stroke:rgb(0, 0, 0);stroke-linecap:square;stroke-width:2" />
	<text x="196" y="160" style="font-family:Arial;font-size:11px;text-anchor:end" dominant-baseline="middle" transform="rotate(0, 196, 160)">+5V</text>
	<line x1="90" y1="170" x2="100" y2="170" style="stroke:rgb(0, 0, 0);stroke-linecap:square;stroke-width:2" />
	<text x="104" y="170" style="font-family:Arial;font-size:11px;text-anchor:start" dominant-baseline="middle" transform="rotate(0, 104, 170)">VRx</text>
	<line x1="200" y1="170" x2="210" y2="170" style="stroke:rgb(0, 0, 0);stroke-linecap:square;stroke-width:2" />
	<text x="196" y="170" style="font-family:Arial;font-size:11px;text-anchor:end" dominant-baseline="middle" transform="rotate(0, 196, 170)">VRy</text>
	<path d="M 310,200 L 310,360 L 630,360 L 630,40 L 320,40 L 310,50 L 310,200 Z" style="fill-opacity:0;fill:rgb(0, 0, 0);stroke:rgb(0, 0, 0);stroke-linecap:square;stroke-width:2" />
	<text x="470" y="200" style="font-family:Arial;font-size:11px;text-anchor:middle" dominant-baseline="middle" transform="rotate(0, 470, 200)">Arduino Mega 2560</text>
	<line x1="300" y1="90" x2="310" y2="90" style="stroke:rgb(0, 0, 0);stroke-linecap:square;stroke-width:2" />
	<text x="314" y="90" style="font-family:Arial;font-size:11px;text-anchor:start" dominant-baseline="middle" transform="rotate(0, 314, 90)">IOREF</text>
	<line x1="300" y1="100" x2="310" y2="100" style="stroke:rgb(0, 0, 0);stroke-linecap:square;stroke-width:2" />
	<text x="314" y="100" style="font-family:Arial;font-size:11px;text-anchor:start" dominant-baseline="middle" transform="rotate(0, 314, 100)">RST</text>
	<line x1="300" y1="110" x2="310" y2="110" style="stroke:rgb(0, 0, 0);stroke-linecap:square;stroke-width:2" />
	<text x="314" y="110" style="font-family:Arial;font-size:11px;text-anchor:start" dominant-baseline="middle" transform="rotate(0, 314, 110)">3V3</text>
	<line x1="300" y1="120" x2="310" y2="120" style="stroke:rgb(0, 0, 0);stroke-linecap:square;stroke-width:2" />
	<text x="314" y="120" style="font-family:Arial;font-size:11px;text-anchor:start" dominant-baseline="middle" transform="rotate(0, 314, 120)">5V</text>
	<line x1="300" y1="130" x2="310" y2="130" style="stroke:rgb(0, 0, 0);stroke-linecap:square;stroke-width:2" />
	<text x="314" y="130" style="font-family:Arial;font-size:11px;text-anchor:start" dominant-baseline="middle" transform="rotate(0, 314, 130)">GND</text>
	<line x1="300" y1="140" x2="310" y2="140" style="stroke:rgb(0, 0, 0);stroke-linecap:square;stroke-width:2" />
	<text x="314" y="140" style="font-family:Arial;font-size:11px;text-anchor:start" dominant-baseline="middle" transform="rotate(0, 314, 140)">GND</text>
	<line x1="300" y1="150" x2="310" y2="150" style="stroke:rgb(0, 0, 0);stroke-linecap:square;stroke-width:2" />
	<text x="314" y="150" style="font-family:Arial;font-size:11px;text-anchor:start" dominant-baseline="middle" transform="rotate(0, 314, 150)">VIN</text>
	<line x1="300" y1="170" x2="310" y2="170" style="stroke:rgb(0, 0, 0);stroke-linecap:square;stroke-width:2" />
	<text x="314" y="170" style="font-family:Arial;font-size:11px;text-anchor:start" dominant-baseline="middle" transform="rotate(0, 314, 170)">A0</text>
	<line x1="300" y1="180" x2="310" y2="180" style="stroke:rgb(0, 0, 0);stroke-linecap:square;stroke-width:2" />
	<text x="314" y="180" style="font-family:Arial;font-size:11px;text-anchor:start" dominant-baseline="middle" transform="rotate(0, 314, 180)">A1</text>
	<line x1="300" y1="190" x2="310" y2="190" style="stroke:rgb(0, 0, 0);stroke-linecap:square;stroke-width:2" />
	<text x="314" y="190" style="font-family:Arial;font-size:11px;text-anchor:start" dominant-baseline="middle" transform="rotate(0, 314, 190)">A2</text>
	<line x1="300" y1="200" x2="310" y2="200" style="stroke:rgb(0, 0, 0);stroke-linecap:square;stroke-width:2" />
	<text x="314" y="200" style="font-family:Arial;font-size:11px;text-anchor:start" dominant-baseline="middle" transform="rotate(0, 314, 200)">A3</text>
	<line x1="300" y1="210" x2="310" y2="210" style="stroke:rgb(0, 0, 0);stroke-linecap:square;stroke-width:2" />
	<text x="314" y="210" style="font-family:Arial;font-size:11px;text-anchor:start" dominant-baseline="middle" transform="rotate(0, 314, 210)">A4</text>
	<line x1="300" y1="220" x2="310" y2="220" style="stroke:rgb(0, 0, 0);stroke-linecap:square;stroke-width:2" />
	<text x="314" y="220" style="font-family:Arial;font-size:11px;text-anchor:start" dominant-baseline="middle" transform="rotate(0, 314, 220)">A5</text>
	<line x1="300" y1="230" x2="310" y2="230" style="stroke:rgb(0, 0, 0);stroke-linecap:square;stroke-width:2" />
	<text x="314" y="230" style="font-family:Arial;font-size:11px;text-anchor:start" dominant-baseline="middle" transform="rotate(0, 314, 230)">A6</text>
	<line x1="300" y1="240" x2="310" y2="240" style="stroke:rgb(0, 0, 0);stroke-linecap:square;stroke-width:2" />
	<text x="314" y="240" style="font-family:Arial;font-size:11px;text-anchor:start" dominant-baseline="middle" transform="rotate(0, 314, 240)">A7</text>
	<line x1="300" y1="250" x2="310" y2="250" style="stroke:rgb(0, 0, 0);stroke-linecap:square;stroke-width:2" />
	<text x="314" y="250" style="font-family:Arial;font-size:11px;text-anchor:start" dominant-baseline="middle" transform="rotate(0, 314, 250)">A8</text>
	<line x1="300" y1="260" x2="310" y2="260" style="stroke:rgb(0, 0, 0);stroke-linecap:square;stroke-width:2" />
	<text x="314" y="260" style="font-family:Arial;font-size:11px;text-anchor:start" dominant-baseline="middle" transform="rotate(0, 314, 260)">A9</text>
	<line x1="300" y1="270" x2="310" y2="270" style="stroke:rgb(0, 0, 0);stroke-linecap:square;stroke-width:2" />
	<text x="314" y="270" style="font-family:Arial;font-size:11px;text-anchor:start" dominant-baseline="middle" transform="rotate(0, 314, 270)">A10</text>
	<line x1="300" y1="280" x2="310" y2="280" style="stroke:rgb(0, 0, 0);stroke-linecap:square;stroke-width:2" />
	<text x="314" y="280" style="font-family:Arial;font-size:11px;text-anchor:start" dominant-baseline="middle" transform="rotate(0, 314, 280)">A11</text>
	<line x1="300" y1="290" x2="310" y2="290" style="stroke:rgb(0, 0, 0);stroke-linecap:square;stroke-width:2" />
	<text x="314" y="290" style="font-family:Arial;font-size:11px;text-anchor:start" dominant-baseline="middle" transform="rotate(0, 314, 290)">A12</text>
	<line x1="300" y1="300" x2="310" y2="300" style="stroke:rgb(0, 0, 0);stroke-linecap:square;stroke-width:2" />
	<text x="314" y="300" style="font-family:Arial;font-size:11px;text-anchor:start" dominant-baseline="middle" transform="rotate(0, 314, 300)">A13</text>
	<line x1="300" y1="310" x2="310" y2="310" style="stroke:rgb(0, 0, 0);stroke-linecap:square;stroke-width:2" />
	<text x="314" y="310" style="font-family:Arial;font-size:11px;text-anchor:start" dominant-baseline="middle" transform="rotate(0, 314, 310)">A14</text>
	<line x1="300" y1="320" x2="310" y2="320" style="stroke:rgb(0, 0, 0);stroke-linecap:square;stroke-width:2" />
	<text x="314" y="320" style="font-family:Arial;font-size:11px;text-anchor:start" dominant-baseline="middle" transform="rotate(0, 314, 320)">A15</text>
	<line x1="350" y1="370" x2="350" y2="360" style="stroke:rgb(0, 0, 0);stroke-linecap:square;stroke-width:2" />
	<text x="350" y="356" style="font-family:Arial;font-size:11px;text-anchor:start" dominant-baseline="middle" transform="rotate(270, 350, 356)">GND</text>
	<line x1="360" y1="370" x2="360" y2="360" style="stroke:rgb(0, 0, 0);stroke-linecap:square;stroke-width:2" />
	<text x="360" y="356" style="font-family:Arial;font-size:11px;text-anchor:start" dominant-baseline="middle" transform="rotate(270, 360, 356)">GND</text>
	<line x1="380" y1="370" x2="380" y2="360" style="stroke:rgb(0, 0, 0);stroke-linecap:square;stroke-width:2" />
	<text x="380" y="356" style="font-family:Arial;font-size:11px;text-anchor:start" dominant-baseline="middle" transform="rotate(270, 380, 356)">D53</text>
	<line x1="390" y1="370" x2="390" y2="360" style="stroke:rgb(0, 0, 0);stroke-linecap:square;stroke-width:2" />
	<text x="390" y="356" style="font-family:Arial;font-size:11px;text-anchor:start" dominant-baseline="middle" transform="rotate(270, 390, 356)">D52</text>
	<line x1="400" y1="370" x2="400" y2="360" style="stroke:rgb(0, 0, 0);stroke-linecap:square;stroke-width:2" />
	<text x="400" y="356" style="font-family:Arial;font-size:11px;text-anchor:start" dominant-baseline="middle" transform="rotate(270, 400, 356)">D51</text>
	<line x1="410" y1="370" x2="410" y2="360" style="stroke:rgb(0, 0, 0);stroke-linecap:square;stroke-width:2" />
	<text x="410" y="356" style="font-family:Arial;font-size:11px;text-anchor:start" dominant-baseline="middle" transform="rotate(270, 410, 356)">D50</text>
	<line x1="420" y1="370" x2="420" y2="360" style="stroke:rgb(0, 0, 0);stroke-linecap:square;stroke-width:2" />
	<text x="420" y="356" style="font-family:Arial;font-size:11px;text-anchor:start" dominant-baseline="middle" transform="rotate(270, 420, 356)">D49</text>
	<line x1="430" y1="370" x2="430" y2="360" style="stroke:rgb(0, 0, 0);stroke-linecap:square;stroke-width:2" />
	<text x="430" y="356" style="font-family:Arial;font-size:11px;text-anchor:start" dominant-baseline="middle" transform="rotate(270, 430, 356)">D48</text>
	<line x1="440" y1="370" x2="440" y2="360" style="stroke:rgb(0, 0, 0);stroke-linecap:square;stroke-width:2" />
	<text x="440" y="356" style="font-family:Arial;font-size:11px;text-anchor:start" dominant-baseline="middle" transform="rotate(270, 440, 356)">D47</text>
	<line x1="450" y1="370" x2="450" y2="360" style="stroke:rgb(0, 0, 0);stroke-linecap:square;stroke-width:2" />
	<text x="450" y="356" style="font-family:Arial;font-size:11px;text-anchor:start" dominant-baseline="middle" transform="rotate(270, 450, 356)">D46</text>
	<line x1="460" y1="370" x2="460" y2="360" style="stroke:rgb(0, 0, 0);stroke-linecap:square;stroke-width:2" />
	<text x="460" y="356" style="font-family:Arial;font-size:11px;text-anchor:start" dominant-baseline="middle" transform="rotate(270, 460, 356)">D45</text>
	<line x1="470" y1="370" x2="470" y2="360" style="stroke:rgb(0, 0, 0);stroke-linecap:square;stroke-width:2" />
	<text x="470" y="356" style="font-family:Arial;font-size:11px;text-anchor:start" dominant-baseline="middle" transform="rotate(270, 470, 356)">D44</text>
	<line x1="480" y1="370" x2="480" y2="360" style="stroke:rgb(0, 0, 0);stroke-linecap:square;stroke-width:2" />
	<text x="480" y="356" style="font-family:Arial;font-size:11px;text-anchor:start" dominant-baseline="middle" transform="rotate(270, 480, 356)">D43</text>
	<line x1="490" y1="370" x2="490" y2="360" style="stroke:rgb(0, 0, 0);stroke-linecap:square;stroke-width:2" />
	<text x="490" y="356" style="font-family:Arial;font-size:11px;text-anchor:start" dominant-baseline="middle" transform="rotate(270, 490, 356)">D42</text>
	<line x1="500" y1="370" x2="500" y2="360" style="stroke:rgb(0, 0, 0);stroke-linecap:square;stroke-width:2" />
	<text x="500" y="356" style="font-family:Arial;font-size:11px;text-anchor:start" dominant-baseline="middle" transform="rotate(270, 500, 356)">D41</text>
	<line x1="510" y1="370" x2="510" y2="360" style="stroke:rgb(0, 0, 0);stroke-linecap:square;stroke-width:2" />
	<text x="510" y="356" style="font-family:Arial;font-size:11px;text-anchor:start" dominant-baseline="middle" transform="rotate(270, 510, 356)">D40</text>
	<line x1="520" y1="370" x2="520" y2="360" style="stroke:rgb(0, 0, 0);stroke-linecap:square;stroke-width:2" />
	<text x="520" y="356" style="font-family:Arial;font-size:11px;text-anchor:start" dominant-baseline="middle" transform="rotate(270, 520, 356)">D39</text>
	<line x1="530" y1="370" x2="530" y2="360" style="stroke:rgb(0, 0, 0);stroke-linecap:square;stroke-width:2" />
	<text x="530" y="356" style="font-family:Arial;font-size:11px;text-anchor:start" dominant-baseline="middle" transform="rotate(270, 530, 356)">D38</text>
	<line x1="540" y1="370" x2="540" y2="360" style="stroke:rgb(0, 0, 0);stroke-linecap:square;stroke-width:2" />
	<text x="540" y="356" style="font-family:Arial;font-size:11px;text-anchor:start" dominant-baseline="middle" transform="rotate(270, 540, 356)">D37</text>
	<line x1="550" y1="370" x2="550" y2="360" style="stroke:rgb(0, 0, 0);stroke-linecap:square;stroke-width:2" />
	<text x="550" y="356" style="font-family:Arial;font-size:11px;text-anchor:start" dominant-baseline="middle" transform="rotate(270, 550, 356)">D36</text>
	<line x1="560" y1="370" x2="560" y2="360" style="stroke:rgb(0, 0, 0);stroke-linecap:square;stroke-width:2" />
	<text x="560" y="356" style="font-family:Arial;font-size:11px;text-anchor:start" dominant-baseline="middle" transform="rotate(270, 560, 356)">D35</text>
	<line x1="570" y1="370" x2="570" y2="360" style="stroke:rgb(0, 0, 0);stroke-linecap:square;stroke-width:2" />
	<text x="570" y="356" style="font-family:Arial;font-size:11px;text-anchor:start" dominant-baseline="middle" transform="rotate(270, 570, 356)">D34</text>
	<line x1="580" y1="370" x2="580" y2="360" style="stroke:rgb(0, 0, 0);stroke-linecap:square;stroke-width:2" />
	<text x="580" y="356" style="font-family:Arial;font-size:11px;text-anchor:start" dominant-baseline="middle" transform="rotate(270, 580, 356)">D33</text>
	<line x1="590" y1="370" x2="590" y2="360" style="stroke:rgb(0, 0, 0);stroke-linecap:square;stroke-width:2" />
	<text x="590" y="356" style="font-family:Arial;font-size:11px;text-anchor:start" dominant-baseline="middle" transform="rotate(270, 590, 356)">D32</text>
	<line x1="630" y1="320" x2="640" y2="320" style="stroke:rgb(0, 0, 0);stroke-linecap:square;stroke-width:2" />
	<text x="626" y="320" style="font-family:Arial;font-size:11px;text-anchor:end" dominant-baseline="middle" transform="rotate(0, 626, 320)">D31</text>
	<line x1="630" y1="310" x2="640" y2="310" style="stroke:rgb(0, 0, 0);stroke-linecap:square;stroke-width:2" />
	<text x="626" y="310" style="font-family:Arial;font-size:11px;text-anchor:end" dominant-baseline="middle" transform="rotate(0, 626, 310)">D30</text>
	<line x1="630" y1="300" x2="640" y2="300" style="stroke:rgb(0, 0, 0);stroke-linecap:square;stroke-width:2" />
	<text x="626" y="300" style="font-family:Arial;font-size:11px;text-anchor:end" dominant-baseline="middle" transform="rotate(0, 626, 300)">D29</text>
	<line x1="630" y1="290" x2="640" y2="290" style="stroke:rgb(0, 0, 0);stroke-linecap:square;stroke-width:2" />
	<text x="626" y="290" style="font-family:Arial;font-size:11px;text-anchor:end" dominant-baseline="middle" transform="rotate(0, 626, 290)">D28</text>
	<line x1="630" y1="280" x2="640" y2="280" style="stroke:rgb(0, 0, 0);stroke-linecap:square;stroke-width:2" />
	<text x="626" y="280" style="font-family:Arial;font-size:11px;text-anchor:end" dominant-baseline="middle" transform="rotate(0, 626, 280)">D27</text>
	<line x1="630" y1="270" x2="640" y2="270" style="stroke:rgb(0, 0, 0);stroke-linecap:square;stroke-width:2" />
	<text x="626" y="270" style="font-family:Arial;font-size:11px;text-anchor:end" dominant-baseline="middle" transform="rotate(0, 626, 270)">D26</text>
	<line x1="630" y1="260" x2="640" y2="260" style="stroke:rgb(0, 0, 0);stroke-linecap:square;stroke-width:2" />
	<text x="626" y="260" style="font-family:Arial;font-size:11px;text-anchor:end" dominant-baseline="middle" transform="rotate(0, 626, 260)">D25</text>
	<line x1="630" y1="250" x2="640" y2="250" style="stroke:rgb(0, 0, 0);stroke-linecap:square;stroke-width:2" />
	<text x="626" y="250" style="font-family:Arial;font-size:11px;text-anchor:end" dominant-baseline="middle" transform="rotate(0, 626, 250)">D24</text>
	<line x1="630" y1="240" x2="640" y2="240" style="stroke:rgb(0, 0, 0);stroke-linecap:square;stroke-width:2" />
	<text x="626" y="240" style="font-family:Arial;font-size:11px;text-anchor:end" dominant-baseline="middle" transform="rotate(0, 626, 240)">D23</text>
	<line x1="630" y1="230" x2="640" y2="230" style="stroke:rgb(0, 0, 0);stroke-linecap:square;stroke-width:2" />
	<text x="626" y="230" style="font-family:Arial;font-size:11px;text-anchor:end" dominant-baseline="middle" transform="rotate(0, 626, 230)">D22</text>
	<line x1="630" y1="210" x2="640" y2="210" style="stroke:rgb(0, 0, 0);stroke-linecap:square;stroke-width:2" />
	<text x="626" y="210" style="font-family:Arial;font-size:11px;text-anchor:end" dominant-baseline="middle" transform="rotate(0, 626, 210)">5V</text>
	<line x1="630" y1="200" x2="640" y2="200" style="stroke:rgb(0, 0, 0);stroke-linecap:square;stroke-width:2" />
	<text x="626" y="200" style="font-family:Arial;font-size:11px;text-anchor:end" dominant-baseline="middle" transform="rotate(0, 626, 200)">5V</text>
	<line x1="630" y1="180" x2="640" y2="180" style="stroke:rgb(0, 0, 0);stroke-linecap:square;stroke-width:2" />
	<text x="626" y="180" style="font-family:Arial;font-size:11px;text-anchor:end" dominant-baseline="middle" transform="rotate(0, 626, 180)">SCL D21</text>
	<line x1="630" y1="170" x2="640" y2="170" style="stroke:rgb(0, 0, 0);stroke-linecap:square;stroke-width:2" />
	<text x="626" y="170" style="font-family:Arial;font-size:11px;text-anchor:end" dominant-baseline="middle" transform="rotate(0, 626, 170)">SDA D20</text>
	<line x1="630" y1="160" x2="640" y2="160" style="stroke:rgb(0, 0, 0);stroke-linecap:square;stroke-width:2" />
	<text x="626" y="160" style="font-family:Arial;font-size:11px;text-anchor:end" dominant-baseline="middle" transform="rotate(0, 626, 160)">RX1 D19</text>
	<line x1="630" y1="150" x2="640" y2="150" style="stroke:rgb(0, 0, 0);stroke-linecap:square;stroke-width:2" />
	<text x="626" y="150" style="font-family:Arial;font-size:11px;text-anchor:end" dominant-baseline="middle" transform="rotate(0, 626, 150)">TX1 D18</text>
	<line x1="630" y1="140" x2="640" y2="140" style="stroke:rgb(0, 0, 0);stroke-linecap:square;stroke-width:2" />
	<text x="626" y="140" style="font-family:Arial;font-size:11px;text-anchor:end" dominant-baseline="middle" transform="rotate(0, 626, 140)">RX2 D17</text>
	<line x1="630" y1="130" x2="640" y2="130" style="stroke:rgb(0, 0, 0);stroke-linecap:square;stroke-width:2" />
	<text x="626" y="130" style="font-family:Arial;font-size:11px;text-anchor:end" dominant-baseline="middle" transform="rotate(0, 626, 130)">TX2 D16</text>
	<line x1="630" y1="120" x2="640" y2="120" style="stroke:rgb(0, 0, 0);stroke-linecap:square;stroke-width:2" />
	<text x="626" y="120" style="font-family:Arial;font-size:11px;text-anchor:end" dominant-baseline="middle" transform="rotate(0, 626, 120)">RX3 D15</text>
	<line x1="630" y1="110" x2="640" y2="110" style="stroke:rgb(0, 0, 0);stroke-linecap:square;stroke-width:2" />
	<text x="626" y="110" style="font-family:Arial;font-size:11px;text-anchor:end" dominant-baseline="middle" transform="rotate(0, 626, 110)">TX3 D14</text>
	<line x1="590" y1="40" x2="590" y2="30" style="stroke:rgb(0, 0, 0);stroke-linecap:square;stroke-width:2" />
	<text x="590" y="44" style="font-family:Arial;font-size:11px;text-anchor:end" dominant-baseline="middle" transform="rotate(270, 590, 44)">RX0 D0</text>
	<line x1="580" y1="40" x2="580" y2="30" style="stroke:rgb(0, 0, 0);stroke-linecap:square;stroke-width:2" />
	<text x="580" y="44" style="font-family:Arial;font-size:11px;text-anchor:end" dominant-baseline="middle" transform="rotate(270, 580, 44)">TX0 D1</text>
	<line x1="570" y1="40" x2="570" y2="30" style="stroke:rgb(0, 0, 0);stroke-linecap:square;stroke-width:2" />
	<text x="570" y="44" style="font-family:Arial;font-size:11px;text-anchor:end" dominant-baseline="middle" transform="rotate(270, 570, 44)">D2</text>
	<line x1="560" y1="40" x2="560" y2="30" style="stroke:rgb(0, 0, 0);stroke-linecap:square;stroke-width:2" />
	<text x="560" y="44" style="font-family:Arial;font-size:11px;text-anchor:end" dominant-baseline="middle" transform="rotate(270, 560, 44)">D3</text>
	<line x1="550" y1="40" x2="550" y2="30" style="stroke:rgb(0, 0, 0);stroke-linecap:square;stroke-width:2" />
	<text x="550" y="44" style="font-family:Arial;font-size:11px;text-anchor:end" dominant-baseline="middle" transform="rotate(270, 550, 44)">D4</text>
	<line x1="540" y1="40" x2="540" y2="30" style="stroke:rgb(0, 0, 0);stroke-linecap:square;stroke-width:2" />
	<text x="540" y="44" style="font-family:Arial;font-size:11px;text-anchor:end" dominant-baseline="middle" transform="rotate(270, 540, 44)">D5</text>
	<line x1="530" y1="40" x2="530" y2="30" style="stroke:rgb(0, 0, 0);stroke-linecap:square;stroke-width:2" />
	<text x="530" y="44" style="font-family:Arial;font-size:11px;text-anchor:end" dominant-baseline="middle" transform="rotate(270, 530, 44)">D6</text>
	<line x1="520" y1="40" x2="520" y2="30" style="stroke:rgb(0, 0, 0);stroke-linecap:square;stroke-width:2" />
	<text x="520" y="44" style="font-family:Arial;font-size:11px;text-anchor:end" dominant-baseline="middle" transform="rotate(270, 520, 44)">D7</text>
	<line x1="510" y1="40" x2="510" y2="30" style="stroke:rgb(0, 0, 0);stroke-linecap:square;stroke-width:2" />
	<text x="510" y="44" style="font-family:Arial;font-size:11px;text-anchor:end" dominant-baseline="middle" transform="rotate(270, 510, 44)">D8</text>
	<line x1="500" y1="40" x2="500" y2="30" style="stroke:rgb(0, 0, 0);stroke-linecap:square;stroke-width:2" />
	<text x="500" y="44" style="font-family:Arial;font-size:11px;text-anchor:end" dominant-baseline="middle" transform="rotate(270, 500, 44)">D9</text>
	<line x1="490" y1="40" x2="490" y2="30" style="stroke:rgb(0, 0, 0);stroke-linecap:square;stroke-width:2" />
	<text x="490" y="44" style="font-family:Arial;font-size:11px;text-anchor:end" dominant-baseline="middle" transform="rotate(270, 490, 44)">D10</text>
	<line x1="480" y1="40" x2="480" y2="30" style="stroke:rgb(0, 0, 0);stroke-linecap:square;stroke-width:2" />
	<text x="480" y="44" style="font-family:Arial;font-size:11px;text-anchor:end" dominant-baseline="middle" transform="rotate(270, 480, 44)">D11</text>
	<line x1="470" y1="40" x2="470" y2="30" style="stroke:rgb(0, 0, 0);stroke-linecap:square;stroke-width:2" />
	<text x="470" y="44" style="font-family:Arial;font-size:11px;text-anchor:end" dominant-baseline="middle" transform="rotate(270, 470, 44)">D12</text>
	<line x1="460" y1="40" x2="460" y2="30" style="stroke:rgb(0, 0, 0);stroke-linecap:square;stroke-width:2" />
	<text x="460" y="44" style="font-family:Arial;font-size:11px;text-anchor:end" dominant-baseline="middle" transform="rotate(270, 460, 44)">D13</text>
	<line x1="440" y1="40" x2="440" y2="30" style="stroke:rgb(0, 0, 0);stroke-linecap:square;stroke-width:2" />
	<text x="440" y="44" style="font-family:Arial;font-size:11px;text-anchor:end" dominant-baseline="middle" transform="rotate(270, 440, 44)">GND</text>
	<line x1="430" y1="40" x2="430" y2="30" style="stroke:rgb(0, 0, 0);stroke-linecap:square;stroke-width:2" />
	<text x="430" y="44" style="font-family:Arial;font-size:11px;text-anchor:end" dominant-baseline="middle" transform="rotate(270, 430, 44)">AREF</text>
	<line x1="420" y1="40" x2="420" y2="30" style="stroke:rgb(0, 0, 0);stroke-linecap:square;stroke-width:2" />
	<text x="420" y="44" style="font-family:Arial;font-size:11px;text-anchor:end" dominant-baseline="middle" transform="rotate(270, 420, 44)">SCL</text>
	<line x1="410" y1="40" x2="410" y2="30" style="stroke:rgb(0, 0, 0);stroke-linecap:square;stroke-width:2" />
	<text x="410" y="44" style="font-family:Arial;font-size:11px;text-anchor:end" dominant-baseline="middle" transform="rotate(270, 410, 44)">SDA</text>
	<ellipse cx="90" cy="310" rx="2" ry="2" style="fill-opacity:1;fill:rgb(0, 0, 0);stroke:rgb(0, 0, 0);stroke-width:2" />
	<ellipse cx="40" cy="160" rx="2" ry="2" style="fill-opacity:1;fill:rgb(0, 0, 0);stroke:rgb(0, 0, 0);stroke-width:2" />
	<ellipse cx="270" cy="160" rx="2" ry="2" style="fill-opacity:1;fill:rgb(0, 0, 0);stroke:rgb(0, 0, 0);stroke-width:2" />
</svg>