<?xml version="1.0" encoding="utf-8"?>
<!-- Generator: Circuit Diagram, cdlibrary.dll 4.0.0.0 -->
<!DOCTYPE svg PUBLIC "-//W3C//DTD SVG 1.1//EN" "http://www.w3.org/Graphics/SVG/1.1/DTD/svg11.dtd">
<svg version="1.1" width="680" height="460" xmlns="http://www.w3.org/2000/svg">
	<line x1="260" y1="390" x2="260" y2="440" style="stroke:rgb(0, 0, 0);stroke-linecap:square;stroke-width:2" />
	<line x1="260" y1="440" x2="660" y2="440" style="stroke:rgb(0, 0, 0);stroke-linecap:square;stroke-width:2" />
	<line x1="660" y1="430" x2="660" y2="440" style="stroke:rgb(0, 0, 0);stroke-linecap:square;stroke-width:2" />
	<line x1="660" y1="90" x2="660" y2="430" style="stroke:rgb(0, 0, 0);stroke-linecap:square;stroke-width:2" />
	<line x1="640" y1="90" x2="660" y2="90" style="stroke:rgb(0, 0, 0);stroke-linecap:square;stroke-width:2" />
	<line x1="650" y1="80" x2="650" y2="420" style="stroke:rgb(0, 0, 0);stroke-linecap:square;stroke-width:2" />
	<line x1="640" y1="80" x2="650" y2="80" style="stroke:rgb(0, 0, 0);stroke-linecap:square;stroke-width:2" />
	<line x1="270" y1="420" x2="650" y2="420" style="stroke:rgb(0, 0, 0);stroke-linecap:square;stroke-width:2" />
	<line x1="270" y1="390" x2="270" y2="420" style="stroke:rgb(0, 0, 0);stroke-linecap:square;stroke-width:2" />
	<line x1="510" y1="90" x2="520" y2="90" style="stroke:rgb(0, 0, 0);stroke-linecap:square;stroke-width:2" />
	<line x1="510" y1="70" x2="520" y2="70" style="stroke:rgb(0, 0, 0);stroke-linecap:square;stroke-width:2" />
	<line x1="510" y1="80" x2="520" y2="80" style="stroke:rgb(0, 0, 0);stroke-linecap:square;stroke-width:2" />
	<line x1="510" y1="400" x2="520" y2="400" style="stroke:rgb(0, 0, 0);stroke-linecap:square;stroke-width:2" />
	<line x1="520" y1="100" x2="520" y2="400" style="stroke:rgb(0, 0, 0);stroke-linecap:square;stroke-width:2" />
	<line x1="510" y1="120" x2="510" y2="200" style="stroke:rgb(0, 0, 0);stroke-linecap:square;stroke-width:2" />
	<line x1="510" y1="120" x2="520" y2="120" style="stroke:rgb(0, 0, 0);stroke-linecap:square;stroke-width:2" />
	<line x1="630" y1="110" x2="640" y2="110" style="stroke:rgb(0, 0, 0);stroke-linecap:square;stroke-width:2" />
	<line x1="280" y1="390" x2="280" y2="410" style="stroke:rgb(0, 0, 0);stroke-linecap:square;stroke-width:2" />
	<line x1="280" y1="410" x2="300" y2="410" style="stroke:rgb(0, 0, 0);stroke-linecap:square;stroke-width:2" />
	<line x1="290" y1="400" x2="310" y2="400" style="stroke:rgb(0, 0, 0);stroke-linecap:square;stroke-width:2" />
	<line x1="290" y1="390" x2="290" y2="400" style="stroke:rgb(0, 0, 0);stroke-linecap:square;stroke-width:2" />
	<line x1="640" y1="100" x2="640" y2="410" style="stroke:rgb(0, 0, 0);stroke-linecap:square;stroke-width:2" />
	<line x1="630" y1="100" x2="640" y2="100" style="stroke:rgb(0, 0, 0);stroke-linecap:square;stroke-width:2" />
	<line x1="640" y1="400" x2="640" y2="410" style="stroke:rgb(0, 0, 0);stroke-linecap:square;stroke-width:2" />
	<line x1="300" y1="410" x2="640" y2="410" style="stroke:rgb(0, 0, 0);stroke-linecap:square;stroke-width:2" />
	<line x1="300" y1="390" x2="300" y2="410" style="stroke:rgb(0, 0, 0);stroke-linecap:square;stroke-width:2" />
	<line x1="310" y1="400" x2="510" y2="400" style="stroke:rgb(0, 0, 0);stroke-linecap:square;stroke-width:2" />
	<line x1="310" y1="390" x2="310" y2="400" style="stroke:rgb(0, 0, 0);stroke-linecap:square;stroke-width:2" />
	<line x1="450" y1="200" x2="460" y2="200" style="stroke:rgb(0, 0, 0);stroke-linecap:square;stroke-width:2" />
	<line x1="460" y1="200" x2="465" y2="200" style="stroke:rgb(0, 0, 0);stroke-linecap:square;stroke-width:2" />
	<line x1="505" y1="200" x2="510" y2="200" style="stroke:rgb(0, 0, 0);stroke-linecap:square;stroke-width:2" />
	<rect x="465" y="192" width="40" height="16" style="fill-opacity:0;fill:rgb(0, 0, 0);stroke:rgb(0, 0, 0);stroke-width:2" />
	<text x="485" y="186" style="font-family:Arial;font-size:11px;text-anchor:middle" dominant-baseline="baseline" transform="rotate(0, 485, 186)">220 Ω</text>
	<line x1="410" y1="110" x2="410" y2="430" style="stroke:rgb(0, 0, 0);stroke-linecap:square;stroke-width:2" />
	<line x1="410" y1="50" x2="450" y2="50" style="stroke:rgb(0, 0, 0);stroke-linecap:square;stroke-width:2" />
	<line x1="440" y1="80" x2="510" y2="80" style="stroke:rgb(0, 0, 0);stroke-linecap:square;stroke-width:2" />
	<line x1="410" y1="50" x2="410" y2="60" style="stroke:rgb(0, 0, 0);stroke-linecap:square;stroke-width:2" />
	<line x1="410" y1="100" x2="410" y2="110" style="stroke:rgb(0, 0, 0);stroke-linecap:square;stroke-width:2" />
	<rect x="402" y="60" width="16" height="40" style="fill-opacity:0;fill:rgb(0, 0, 0);stroke:rgb(0, 0, 0);stroke-width:2" />
	<text x="396" y="80" style="font-family:Arial;font-size:11px;text-anchor:end" dominant-baseline="middle" transform="rotate(0, 396, 80)">4.7 kΩ</text>
	<path d="M 410,60 M 426,74 L 420,80 L 426,86 M 421,80 L 439,80" style="fill-opacity:0;fill:rgb(0, 0, 0);stroke:rgb(0, 0, 0);stroke-linecap:square;stroke-width:2" />
	<line x1="630" y1="70" x2="640" y2="70" style="stroke:rgb(0, 0, 0);stroke-linecap:square;stroke-width:2" />
	<line x1="640" y1="30" x2="640" y2="40" style="stroke:rgb(0, 0, 0);stroke-linecap:square;stroke-width:2" />
	<line x1="450" y1="30" x2="450" y2="70" style="stroke:rgb(0, 0, 0);stroke-linecap:square;stroke-width:2" />
	<line x1="450" y1="30" x2="640" y2="30" style="stroke:rgb(0, 0, 0);stroke-linecap:square;stroke-width:2" />
	<line x1="640" y1="40" x2="640" y2="50" style="stroke:rgb(0, 0, 0);stroke-linecap:square;stroke-width:2" />
	<line x1="640" y1="50" x2="640" y2="70" style="stroke:rgb(0, 0, 0);stroke-linecap:square;stroke-width:2" />
	<line x1="630" y1="70" x2="640" y2="70" style="stroke:rgb(0, 0, 0);stroke-linecap:square;stroke-width:2" />
	<line x1="450" y1="70" x2="450" y2="220" style="stroke:rgb(0, 0, 0);stroke-linecap:square;stroke-width:2" />
	<line x1="360" y1="220" x2="450" y2="220" style="stroke:rgb(0, 0, 0);stroke-linecap:square;stroke-width:2" />
	<line x1="480" y1="140" x2="630" y2="140" style="stroke:rgb(0, 0, 0);stroke-linecap:square;stroke-width:2" />
	<line x1="630" y1="120" x2="630" y2="140" style="stroke:rgb(0, 0, 0);stroke-linecap:square;stroke-width:2" />
	<line x1="480" y1="90" x2="510" y2="90" style="stroke:rgb(0, 0, 0);stroke-linecap:square;stroke-width:2" />
	<line x1="480" y1="70" x2="510" y2="70" style="stroke:rgb(0, 0, 0);stroke-linecap:square;stroke-width:2" />
	<line x1="480" y1="70" x2="480" y2="430" style="stroke:rgb(0, 0, 0);stroke-linecap:square;stroke-width:2" />
	<line x1="80" y1="430" x2="480" y2="430" style="stroke:rgb(0, 0, 0);stroke-linecap:square;stroke-width:2" />
	<line x1="80" y1="400" x2="80" y2="430" style="stroke:rgb(0, 0, 0);stroke-linecap:square;stroke-width:2" />
	<line x1="80" y1="390" x2="80" y2="400" style="stroke:rgb(0, 0, 0);stroke-linecap:square;stroke-width:2" />
	<text x="580" y="50" style="font-family:Arial;font-size:11px;text-anchor:middle" dominant-baseline="middle" transform="rotate(0, 580, 50)">LCD 1</text>
	<rect x="530" y="60" width="100" height="70" style="fill-opacity:0;fill:rgb(0, 0, 0);stroke:rgb(0, 0, 0);stroke-width:2" />
	<line x1="520" y1="70" x2="530" y2="70" style="stroke:rgb(0, 0, 0);stroke-linecap:square;stroke-width:2" />
	<text x="534" y="70" style="font-family:Arial;font-size:11px;text-anchor:start" dominant-baseline="middle" transform="rotate(0, 534, 70)">VSS</text>
	<line x1="630" y1="70" x2="640" y2="70" style="stroke:rgb(0, 0, 0);stroke-linecap:square;stroke-width:2" />
	<text x="626" y="70" style="font-family:Arial;font-size:11px;text-anchor:end" dominant-baseline="middle" transform="rotate(0, 626, 70)">VDD</text>
	<line x1="520" y1="80" x2="530" y2="80" style="stroke:rgb(0, 0, 0);stroke-linecap:square;stroke-width:2" />
	<text x="534" y="80" style="font-family:Arial;font-size:11px;text-anchor:start" dominant-baseline="middle" transform="rotate(0, 534, 80)">V0</text>
	<line x1="630" y1="80" x2="640" y2="80" style="stroke:rgb(0, 0, 0);stroke-linecap:square;stroke-width:2" />
	<text x="626" y="80" style="font-family:Arial;font-size:11px;text-anchor:end" dominant-baseline="middle" transform="rotate(0, 626, 80)">RS</text>
	<line x1="520" y1="90" x2="530" y2="90" style="stroke:rgb(0, 0, 0);stroke-linecap:square;stroke-width:2" />
	<text x="534" y="90" style="font-family:Arial;font-size:11px;text-anchor:start" dominant-baseline="middle" transform="rotate(0, 534, 90)">RW</text>
	<line x1="630" y1="90" x2="640" y2="90" style="stroke:rgb(0, 0, 0);stroke-linecap:square;stroke-width:2" />
	<text x="626" y="90" style="font-family:Arial;font-size:11px;text-anchor:end" dominant-baseline="middle" transform="rotate(0, 626, 90)">E</text>
	<line x1="520" y1="100" x2="530" y2="100" style="stroke:rgb(0, 0, 0);stroke-linecap:square;stroke-width:2" />
	<text x="534" y="100" style="font-family:Arial;font-size:11px;text-anchor:start" dominant-baseline="middle" transform="rotate(0, 534, 100)">D4</text>
	<line x1="630" y1="100" x2="640" y2="100" style="stroke:rgb(0, 0, 0);stroke-linecap:square;stroke-width:2" />
	<text x="626" y="100" style="font-family:Arial;font-size:11px;text-anchor:end" dominant-baseline="middle" transform="rotate(0, 626, 100)">D5</text>
	<line x1="520" y1="110" x2="530" y2="110" style="stroke:rgb(0, 0, 0);stroke-linecap:square;stroke-width:2" />
	<text x="534" y="110" style="font-family:Arial;font-size:11px;text-anchor:start" dominant-baseline="middle" transform="rotate(0, 534, 110)">D6</text>
	<line x1="630" y1="110" x2="640" y2="110" style="stroke:rgb(0, 0, 0);stroke-linecap:square;stroke-width:2" />
	<text x="626" y="110" style="font-family:Arial;font-size:11px;text-anchor:end" dominant-baseline="middle" transform="rotate(0, 626, 110)">D7</text>
	<line x1="520" y1="120" x2="530" y2="120" style="stroke:rgb(0, 0, 0);stroke-linecap:square;stroke-width:2" />
	<text x="534" y="120" style="font-family:Arial;font-size:11px;text-anchor:start" dominant-baseline="middle" transform="rotate(0, 534, 120)">A</text>
	<line x1="630" y1="120" x2="640" y2="120" style="stroke:rgb(0, 0, 0);stroke-linecap:square;stroke-width:2" />
	<text x="626" y="120" style="font-family:Arial;font-size:11px;text-anchor:end" dominant-baseline="middle" transform="rotate(0, 626, 120)">K</text>
	<path d="M 30,220 L 30,380 L 350,380 L 350,60 L 40,60 L 30,70 L 30,220 Z" style="fill-opacity:0;fill:rgb(0, 0, 0);stroke:rgb(0, 0, 0);stroke-linecap:square;stroke-width:2" />
	<text x="190" y="220" style="font-family:Arial;font-size:11px;text-anchor:middle" dominant-baseline="middle" transform="rotate(0, 190, 220)">Arduino Mega 2560</text>
	<line x1="20" y1="110" x2="30" y2="110" style="stroke:rgb(0, 0, 0);stroke-linecap:square;stroke-width:2" />
	<text x="34" y="110" style="font-family:Arial;font-size:11px;text-anchor:start" dominant-baseline="middle" transform="rotate(0, 34, 110)">IOREF</text>
	<line x1="20" y1="120" x2="30" y2="120" style="stroke:rgb(0, 0, 0);stroke-linecap:square;stroke-width:2" />
	<text x="34" y="120" style="font-family:Arial;font-size:11px;text-anchor:start" dominant-baseline="middle" transform="rotate(0, 34, 120)">RST</text>
	<line x1="20" y1="130" x2="30" y2="130" style="stroke:rgb(0, 0, 0);stroke-linecap:square;stroke-width:2" />
	<text x="34" y="130" style="font-family:Arial;font-size:11px;text-anchor:start" dominant-baseline="middle" transform="rotate(0, 34, 130)">3V3</text>
	<line x1="20" y1="140" x2="30" y2="140" style="stroke:rgb(0, 0, 0);stroke-linecap:square;stroke-width:2" />
	<text x="34" y="140" style="font-family:Arial;font-size:11px;text-anchor:start" dominant-baseline="middle" transform="rotate(0, 34, 140)">5V</text>
	<line x1="20" y1="150" x2="30" y2="150" style="stroke:rgb(0, 0, 0);stroke-linecap:square;stroke-width:2" />
	<text x="34" y="150" style="font-family:Arial;font-size:11px;text-anchor:start" dominant-baseline="middle" transform="rotate(0, 34, 150)">GND</text>
	<line x1="20" y1="160" x2="30" y2="160" style="stroke:rgb(0, 0, 0);stroke-linecap:square;stroke-width:2" />
	<text x="34" y="160" style="font-family:Arial;font-size:11px;text-anchor:start" dominant-baseline="middle" transform="rotate(0, 34, 160)">GND</text>
	<line x1="20" y1="170" x2="30" y2="170" style="stroke:rgb(0, 0, 0);stroke-linecap:square;stroke-width:2" />
	<text x="34" y="170" style="font-family:Arial;font-size:11px;text-anchor:start" dominant-baseline="middle" transform="rotate(0, 34, 170)">VIN</text>
	<line x1="20" y1="190" x2="30" y2="190" style="stroke:rgb(0, 0, 0);stroke-linecap:square;stroke-width:2" />
	<text x="34" y="190" style="font-family:Arial;font-size:11px;text-anchor:start" dominant-baseline="middle" transform="rotate(0, 34, 190)">A0</text>
	<line x1="20" y1="200" x2="30" y2="200" style="stroke:rgb(0, 0, 0);stroke-linecap:square;stroke-width:2" />
	<text x="34" y="200" style="font-family:Arial;font-size:11px;text-anchor:start" dominant-baseline="middle" transform="rotate(0, 34, 200)">A1</text>
	<line x1="20" y1="210" x2="30" y2="210" style="stroke:rgb(0, 0, 0);stroke-linecap:square;stroke-width:2" />
	<text x="34" y="210" style="font-family:Arial;font-size:11px;text-anchor:start" dominant-baseline="middle" transform="rotate(0, 34, 210)">A2</text>
	<line x1="20" y1="220" x2="30" y2="220" style="stroke:rgb(0, 0, 0);stroke-linecap:square;stroke-width:2" />
	<text x="34" y="220" style="font-family:Arial;font-size:11px;text-anchor:start" dominant-baseline="middle" transform="rotate(0, 34, 220)">A3</text>
	<line x1="20" y1="230" x2="30" y2="230" style="stroke:rgb(0, 0, 0);stroke-linecap:square;stroke-width:2" />
	<text x="34" y="230" style="font-family:Arial;font-size:11px;text-anchor:start" dominant-baseline="middle" transform="rotate(0, 34, 230)">A4</text>
	<line x1="20" y1="240" x2="30" y2="240" style="stroke:rgb(0, 0, 0);stroke-linecap:square;stroke-width:2" />
	<text x="34" y="240" style="font-family:Arial;font-size:11px;text-anchor:start" dominant-baseline="middle" transform="rotate(0, 34, 240)">A5</text>
	<line x1="20" y1="250" x2="30" y2="250" style="stroke:rgb(0, 0, 0);stroke-linecap:square;stroke-width:2" />
	<text x="34" y="250" style="font-family:Arial;font-size:11px;text-anchor:start" dominant-baseline="middle" transform="rotate(0, 34, 250)">A6</text>
	<line x1="20" y1="260" x2="30" y2="260" style="stroke:rgb(0, 0, 0);stroke-linecap:square;stroke-width:2" />
	<text x="34" y="260" style="font-family:Arial;font-size:11px;text-anchor:start" dominant-baseline="middle" transform="rotate(0, 34, 260)">A7</text>
	<line x1="20" y1="270" x2="30" y2="270" style="stroke:rgb(0, 0, 0);stroke-linecap:square;stroke-width:2" />
	<text x="34" y="270" style="font-family:Arial;font-size:11px;text-anchor:start" dominant-baseline="middle" transform="rotate(0, 34, 270)">A8</text>
	<line x1="20" y1="280" x2="30" y2="280" style="stroke:rgb(0, 0, 0);stroke-linecap:square;stroke-width:2" />
	<text x="34" y="280" style="font-family:Arial;font-size:11px;text-anchor:start" dominant-baseline="middle" transform="rotate(0, 34, 280)">A9</text>
	<line x1="20" y1="290" x2="30" y2="290" style="stroke:rgb(0, 0, 0);stroke-linecap:square;stroke-width:2" />
	<text x="34" y="290" style="font-family:Arial;font-size:11px;text-anchor:start" dominant-baseline="middle" transform="rotate(0, 34, 290)">A10</text>
	<line x1="20" y1="300" x2="30" y2="300" style="stroke:rgb(0, 0, 0);stroke-linecap:square;stroke-width:2" />
	<text x="34" y="300" style="font-family:Arial;font-size:11px;text-anchor:start" dominant-baseline="middle" transform="rotate(0, 34, 300)">A11</text>
	<line x1="20" y1="310" x2="30" y2="310" style="stroke:rgb(0, 0, 0);stroke-linecap:square;stroke-width:2" />
	<text x="34" y="310" style="font-family:Arial;font-size:11px;text-anchor:start" dominant-baseline="middle" transform="rotate(0, 34, 310)">A12</text>
	<line x1="20" y1="320" x2="30" y2="320" style="stroke:rgb(0, 0, 0);stroke-linecap:square;stroke-width:2" />
	<text x="34" y="320" style="font-family:Arial;font-size:11px;text-anchor:start" dominant-baseline="middle" transform="rotate(0, 34, 320)">A13</text>
	<line x1="20" y1="330" x2="30" y2="330" style="stroke:rgb(0, 0, 0);stroke-linecap:square;stroke-width:2" />
	<text x="34" y="330" style="font-family:Arial;font-size:11px;text-anchor:start" dominant-baseline="middle" transform="rotate(0, 34, 330)">A14</text>
	<line x1="20" y1="340" x2="30" y2="340" style="stroke:rgb(0, 0, 0);stroke-linecap:square;stroke-width:2" />
	<text x="34" y="340" style="font-family:Arial;font-size:11px;text-anchor:start" dominant-baseline="middle" transform="rotate(0, 34, 340)">A15</text>
	<line x1="70" y1="390" x2="70" y2="380" style="stroke:rgb(0, 0, 0);stroke-linecap:square;stroke-width:2" />
	<text x="70" y="376" style="font-family:Arial;font-size:11px;text-anchor:start" dominant-baseline="middle" transform="rotate(270, 70, 376)">GND</text>
	<line x1="80" y1="390" x2="80" y2="380" style="stroke:rgb(0, 0, 0);stroke-linecap:square;stroke-width:2" />
	<text x="80" y="376" style="font-family:Arial;font-size:11px;text-anchor:start" dominant-baseline="middle" transform="rotate(270, 80, 376)">GND</text>
	<line x1="100" y1="390" x2="100" y2="380" style="stroke:rgb(0, 0, 0);stroke-linecap:square;stroke-width:2" />
	<text x="100" y="376" style="font-family:Arial;font-size:11px;text-anchor:start" dominant-baseline="middle" transform="rotate(270, 100, 376)">D53</text>
	<line x1="110" y1="390" x2="110" y2="380" style="stroke:rgb(0, 0, 0);stroke-linecap:square;stroke-width:2" />
	<text x="110" y="376" style="font-family:Arial;font-size:11px;text-anchor:start" dominant-baseline="middle" transform="rotate(270, 110, 376)">D52</text>
	<line x1="120" y1="390" x2="120" y2="380" style="stroke:rgb(0, 0, 0);stroke-linecap:square;stroke-width:2" />
	<text x="120" y="376" style="font-family:Arial;font-size:11px;text-anchor:start" dominant-baseline="middle" transform="rotate(270, 120, 376)">D51</text>
	<line x1="130" y1="390" x2="130" y2="380" style="stroke:rgb(0, 0, 0);stroke-linecap:square;stroke-width:2" />
	<text x="130" y="376" style="font-family:Arial;font-size:11px;text-anchor:start" dominant-baseline="middle" transform="rotate(270, 130, 376)">D50</text>
	<line x1="140" y1="390" x2="140" y2="380" style="stroke:rgb(0, 0, 0);stroke-linecap:square;stroke-width:2" />
	<text x="140" y="376" style="font-family:Arial;font-size:11px;text-anchor:start" dominant-baseline="middle" transform="rotate(270, 140, 376)">D49</text>
	<line x1="150" y1="390" x2="150" y2="380" style="stroke:rgb(0, 0, 0);stroke-linecap:square;stroke-width:2" />
	<text x="150" y="376" style="font-family:Arial;font-size:11px;text-anchor:start" dominant-baseline="middle" transform="rotate(270, 150, 376)">D48</text>
	<line x1="160" y1="390" x2="160" y2="380" style="stroke:rgb(0, 0, 0);stroke-linecap:square;stroke-width:2" />
	<text x="160" y="376" style="font-family:Arial;font-size:11px;text-anchor:start" dominant-baseline="middle" transform="rotate(270, 160, 376)">D47</text>
	<line x1="170" y1="390" x2="170" y2="380" style="stroke:rgb(0, 0, 0);stroke-linecap:square;stroke-width:2" />
	<text x="170" y="376" style="font-family:Arial;font-size:11px;text-anchor:start" dominant-baseline="middle" transform="rotate(270, 170, 376)">D46</text>
	<line x1="180" y1="390" x2="180" y2="380" style="stroke:rgb(0, 0, 0);stroke-linecap:square;stroke-width:2" />
	<text x="180" y="376" style="font-family:Arial;font-size:11px;text-anchor:start" dominant-baseline="middle" transform="rotate(270, 180, 376)">D45</text>
	<line x1="190" y1="390" x2="190" y2="380" style="stroke:rgb(0, 0, 0);stroke-linecap:square;stroke-width:2" />
	<text x="190" y="376" style="font-family:Arial;font-size:11px;text-anchor:start" dominant-baseline="middle" transform="rotate(270, 190, 376)">D44</text>
	<line x1="200" y1="390" x2="200" y2="380" style="stroke:rgb(0, 0, 0);stroke-linecap:square;stroke-width:2" />
	<text x="200" y="376" style="font-family:Arial;font-size:11px;text-anchor:start" dominant-baseline="middle" transform="rotate(270, 200, 376)">D43</text>
	<line x1="210" y1="390" x2="210" y2="380" style="stroke:rgb(0, 0, 0);stroke-linecap:square;stroke-width:2" />
	<text x="210" y="376" style="font-family:Arial;font-size:11px;text-anchor:start" dominant-baseline="middle" transform="rotate(270, 210, 376)">D42</text>
	<line x1="220" y1="390" x2="220" y2="380" style="stroke:rgb(0, 0, 0);stroke-linecap:square;stroke-width:2" />
	<text x="220" y="376" style="font-family:Arial;font-size:11px;text-anchor:start" dominant-baseline="middle" transform="rotate(270, 220, 376)">D41</text>
	<line x1="230" y1="390" x2="230" y2="380" style="stroke:rgb(0, 0, 0);stroke-linecap:square;stroke-width:2" />
	<text x="230" y="376" style="font-family:Arial;font-size:11px;text-anchor:start" dominant-baseline="middle" transform="rotate(270, 230, 376)">D40</text>
	<line x1="240" y1="390" x2="240" y2="380" style="stroke:rgb(0, 0, 0);stroke-linecap:square;stroke-width:2" />
	<text x="240" y="376" style="font-family:Arial;font-size:11px;text-anchor:start" dominant-baseline="middle" transform="rotate(270, 240, 376)">D39</text>
	<line x1="250" y1="390" x2="250" y2="380" style="stroke:rgb(0, 0, 0);stroke-linecap:square;stroke-width:2" />
	<text x="250" y="376" style="font-family:Arial;font-size:11px;text-anchor:start" dominant-baseline="middle" transform="rotate(270, 250, 376)">D38</text>
	<line x1="260" y1="390" x2="260" y2="380" style="stroke:rgb(0, 0, 0);stroke-linecap:square;stroke-width:2" />
	<text x="260" y="376" style="font-family:Arial;font-size:11px;text-anchor:start" dominant-baseline="middle" transform="rotate(270, 260, 376)">D37</text>
	<line x1="270" y1="390" x2="270" y2="380" style="stroke:rgb(0, 0, 0);stroke-linecap:square;stroke-width:2" />
	<text x="270" y="376" style="font-family:Arial;font-size:11px;text-anchor:start" dominant-baseline="middle" transform="rotate(270, 270, 376)">D36</text>
	<line x1="280" y1="390" x2="280" y2="380" style="stroke:rgb(0, 0, 0);stroke-linecap:square;stroke-width:2" />
	<text x="280" y="376" style="font-family:Arial;font-size:11px;text-anchor:start" dominant-baseline="middle" transform="rotate(270, 280, 376)">D35</text>
	<line x1="290" y1="390" x2="290" y2="380" style="stroke:rgb(0, 0, 0);stroke-linecap:square;stroke-width:2" />
	<text x="290" y="376" style="font-family:Arial;font-size:11px;text-anchor:start" dominant-baseline="middle" transform="rotate(270, 290, 376)">D34</text>
	<line x1="300" y1="390" x2="300" y2="380" style="stroke:rgb(0, 0, 0);stroke-linecap:square;stroke-width:2" />
	<text x="300" y="376" style="font-family:Arial;font-size:11px;text-anchor:start" dominant-baseline="middle" transform="rotate(270, 300, 376)">D33</text>
	<line x1="310" y1="390" x2="310" y2="380" style="stroke:rgb(0, 0, 0);stroke-linecap:square;stroke-width:2" />
	<text x="310" y="376" style="font-family:Arial;font-size:11px;text-anchor:start" dominant-baseline="middle" transform="rotate(270, 310, 376)">D32</text>
	<line x1="350" y1="340" x2="360" y2="340" style="stroke:rgb(0, 0, 0);stroke-linecap:square;stroke-width:2" />
	<text x="346" y="340" style="font-family:Arial;font-size:11px;text-anchor:end" dominant-baseline="middle" transform="rotate(0, 346, 340)">D31</text>
	<line x1="350" y1="330" x2="360" y2="330" style="stroke:rgb(0, 0, 0);stroke-linecap:square;stroke-width:2" />
	<text x="346" y="330" style="font-family:Arial;font-size:11px;text-anchor:end" dominant-baseline="middle" transform="rotate(0, 346, 330)">D30</text>
	<line x1="350" y1="320" x2="360" y2="320" style="stroke:rgb(0, 0, 0);stroke-linecap:square;stroke-width:2" />
	<text x="346" y="320" style="font-family:Arial;font-size:11px;text-anchor:end" dominant-baseline="middle" transform="rotate(0, 346, 320)">D29</text>
	<line x1="350" y1="310" x2="360" y2="310" style="stroke:rgb(0, 0, 0);stroke-linecap:square;stroke-width:2" />
	<text x="346" y="310" style="font-family:Arial;font-size:11px;text-anchor:end" dominant-baseline="middle" transform="rotate(0, 346, 310)">D28</text>
	<line x1="350" y1="300" x2="360" y2="300" style="stroke:rgb(0, 0, 0);stroke-linecap:square;stroke-width:2" />
	<text x="346" y="300" style="font-family:Arial;font-size:11px;text-anchor:end" dominant-baseline="middle" transform="rotate(0, 346, 300)">D27</text>
	<line x1="350" y1="290" x2="360" y2="290" style="stroke:rgb(0, 0, 0);stroke-linecap:square;stroke-width:2" />
	<text x="346" y="290" style="font-family:Arial;font-size:11px;text-anchor:end" dominant-baseline="middle" transform="rotate(0, 346, 290)">D26</text>
	<line x1="350" y1="280" x2="360" y2="280" style="stroke:rgb(0, 0, 0);stroke-linecap:square;stroke-width:2" />
	<text x="346" y="280" style="font-family:Arial;font-size:11px;text-anchor:end" dominant-baseline="middle" transform="rotate(0, 346, 280)">D25</text>
	<line x1="350" y1="270" x2="360" y2="270" style="stroke:rgb(0, 0, 0);stroke-linecap:square;stroke-width:2" />
	<text x="346" y="270" style="font-family:Arial;font-size:11px;text-anchor:end" dominant-baseline="middle" transform="rotate(0, 346, 270)">D24</text>
	<line x1="350" y1="260" x2="360" y2="260" style="stroke:rgb(0, 0, 0);stroke-linecap:square;stroke-width:2" />
	<text x="346" y="260" style="font-family:Arial;font-size:11px;text-anchor:end" dominant-baseline="middle" transform="rotate(0, 346, 260)">D23</text>
	<line x1="350" y1="250" x2="360" y2="250" style="stroke:rgb(0, 0, 0);stroke-linecap:square;stroke-width:2" />
	<text x="346" y="250" style="font-family:Arial;font-size:11px;text-anchor:end" dominant-baseline="middle" transform="rotate(0, 346, 250)">D22</text>
	<line x1="350" y1="230" x2="360" y2="230" style="stroke:rgb(0, 0, 0);stroke-linecap:square;stroke-width:2" />
	<text x="346" y="230" style="font-family:Arial;font-size:11px;text-anchor:end" dominant-baseline="middle" transform="rotate(0, 346, 230)">5V</text>
	<line x1="350" y1="220" x2="360" y2="220" style="stroke:rgb(0, 0, 0);stroke-linecap:square;stroke-width:2" />
	<text x="346" y="220" style="font-family:Arial;font-size:11px;text-anchor:end" dominant-baseline="middle" transform="rotate(0, 346, 220)">5V</text>
	<line x1="350" y1="200" x2="360" y2="200" style="stroke:rgb(0, 0, 0);stroke-linecap:square;stroke-width:2" />
	<text x="346" y="200" style="font-family:Arial;font-size:11px;text-anchor:end" dominant-baseline="middle" transform="rotate(0, 346, 200)">SCL D21</text>
	<line x1="350" y1="190" x2="360" y2="190" style="stroke:rgb(0, 0, 0);stroke-linecap:square;stroke-width:2" />
	<text x="346" y="190" style="font-family:Arial;font-size:11px;text-anchor:end" dominant-baseline="middle" transform="rotate(0, 346, 190)">SDA D20</text>
	<line x1="350" y1="180" x2="360" y2="180" style="stroke:rgb(0, 0, 0);stroke-linecap:square;stroke-width:2" />
	<text x="346" y="180" style="font-family:Arial;font-size:11px;text-anchor:end" dominant-baseline="middle" transform="rotate(0, 346, 180)">RX1 D19</text>
	<line x1="350" y1="170" x2="360" y2="170" style="stroke:rgb(0, 0, 0);stroke-linecap:square;stroke-width:2" />
	<text x="346" y="170" style="font-family:Arial;font-size:11px;text-anchor:end" dominant-baseline="middle" transform="rotate(0, 346, 170)">TX1 D18</text>
	<line x1="350" y1="160" x2="360" y2="160" style="stroke:rgb(0, 0, 0);stroke-linecap:square;stroke-width:2" />
	<text x="346" y="160" style="font-family:Arial;font-size:11px;text-anchor:end" dominant-baseline="middle" transform="rotate(0, 346, 160)">RX2 D17</text>
	<line x1="350" y1="150" x2="360" y2="150" style="stroke:rgb(0, 0, 0);stroke-linecap:square;stroke-width:2" />
	<text x="346" y="150" style="font-family:Arial;font-size:11px;text-anchor:end" dominant-baseline="middle" transform="rotate(0, 346, 150)">TX2 D16</text>
	<line x1="350" y1="140" x2="360" y2="140" style="stroke:rgb(0, 0, 0);stroke-linecap:square;stroke-width:2" />
	<text x="346" y="140" style="font-family:Arial;font-size:11px;text-anchor:end" dominant-baseline="middle" transform="rotate(0, 346, 140)">RX3 D15</text>
	<line x1="350" y1="130" x2="360" y2="130" style="stroke:rgb(0, 0, 0);stroke-linecap:square;stroke-width:2" />
	<text x="346" y="130" style="font-family:Arial;font-size:11px;text-anchor:end" dominant-baseline="middle" transform="rotate(0, 346, 130)">TX3 D14</text>
	<line x1="310" y1="60" x2="310" y2="50" style="stroke:rgb(0, 0, 0);stroke-linecap:square;stroke-width:2" />
	<text x="310" y="64" style="font-family:Arial;font-size:11px;text-anchor:end" dominant-baseline="middle" transform="rotate(270, 310, 64)">RX0 D0</text>
	<line x1="300" y1="60" x2="300" y2="50" style="stroke:rgb(0, 0, 0);stroke-linecap:square;stroke-width:2" />
	<text x="300" y="64" style="font-family:Arial;font-size:11px;text-anchor:end" dominant-baseline="middle" transform="rotate(270, 300, 64)">TX0 D1</text>
	<line x1="290" y1="60" x2="290" y2="50" style="stroke:rgb(0, 0, 0);stroke-linecap:square;stroke-width:2" />
	<text x="290" y="64" style="font-family:Arial;font-size:11px;text-anchor:end" dominant-baseline="middle" transform="rotate(270, 290, 64)">D2</text>
	<line x1="280" y1="60" x2="280" y2="50" style="stroke:rgb(0, 0, 0);stroke-linecap:square;stroke-width:2" />
	<text x="280" y="64" style="font-family:Arial;font-size:11px;text-anchor:end" dominant-baseline="middle" transform="rotate(270, 280, 64)">D3</text>
	<line x1="270" y1="60" x2="270" y2="50" style="stroke:rgb(0, 0, 0);stroke-linecap:square;stroke-width:2" />
	<text x="270" y="64" style="font-family:Arial;font-size:11px;text-anchor:end" dominant-baseline="middle" transform="rotate(270, 270, 64)">D4</text>
	<line x1="260" y1="60" x2="260" y2="50" style="stroke:rgb(0, 0, 0);stroke-linecap:square;stroke-width:2" />
	<text x="260" y="64" style="font-family:Arial;font-size:11px;text-anchor:end" dominant-baseline="middle" transform="rotate(270, 260, 64)">D5</text>
	<line x1="250" y1="60" x2="250" y2="50" style="stroke:rgb(0, 0, 0);stroke-linecap:square;stroke-width:2" />
	<text x="250" y="64" style="font-family:Arial;font-size:11px;text-anchor:end" dominant-baseline="middle" transform="rotate(270, 250, 64)">D6</text>
	<line x1="240" y1="60" x2="240" y2="50" style="stroke:rgb(0, 0, 0);stroke-linecap:square;stroke-width:2" />
	<text x="240" y="64" style="font-family:Arial;font-size:11px;text-anchor:end" dominant-baseline="middle" transform="rotate(270, 240, 64)">D7</text>
	<line x1="230" y1="60" x2="230" y2="50" style="stroke:rgb(0, 0, 0);stroke-linecap:square;stroke-width:2" />
	<text x="230" y="64" style="font-family:Arial;font-size:11px;text-anchor:end" dominant-baseline="middle" transform="rotate(270, 230, 64)">D8</text>
	<line x1="220" y1="60" x2="220" y2="50" style="stroke:rgb(0, 0, 0);stroke-linecap:square;stroke-width:2" />
	<text x="220" y="64" style="font-family:Arial;font-size:11px;text-anchor:end" dominant-baseline="middle" transform="rotate(270, 220, 64)">D9</text>
	<line x1="210" y1="60" x2="210" y2="50" style="stroke:rgb(0, 0, 0);stroke-linecap:square;stroke-width:2" />
	<text x="210" y="64" style="font-family:Arial;font-size:11px;text-anchor:end" dominant-baseline="middle" transform="rotate(270, 210, 64)">D10</text>
	<line x1="200" y1="60" x2="200" y2="50" style="stroke:rgb(0, 0, 0);stroke-linecap:square;stroke-width:2" />
	<text x="200" y="64" style="font-family:Arial;font-size:11px;text-anchor:end" dominant-baseline="middle" transform="rotate(270, 200, 64)">D11</text>
	<line x1="190" y1="60" x2="190" y2="50" style="stroke:rgb(0, 0, 0);stroke-linecap:square;stroke-width:2" />
	<text x="190" y="64" style="font-family:Arial;font-size:11px;text-anchor:end" dominant-baseline="middle" transform="rotate(270, 190, 64)">D12</text>
	<line x1="180" y1="60" x2="180" y2="50" style="stroke:rgb(0, 0, 0);stroke-linecap:square;stroke-width:2" />
	<text x="180" y="64" style="font-family:Arial;font-size:11px;text-anchor:end" dominant-baseline="middle" transform="rotate(270, 180, 64)">D13</text>
	<line x1="160" y1="60" x2="160" y2="50" style="stroke:rgb(0, 0, 0);stroke-linecap:square;stroke-width:2" />
	<text x="160" y="64" style="font-family:Arial;font-size:11px;text-anchor:end" dominant-baseline="middle" transform="rotate(270, 160, 64)">GND</text>
	<line x1="150" y1="60" x2="150" y2="50" style="stroke:rgb(0, 0, 0);stroke-linecap:square;stroke-width:2" />
	<text x="150" y="64" style="font-family:Arial;font-size:11px;text-anchor:end" dominant-baseline="middle" transform="rotate(270, 150, 64)">AREF</text>
	<line x1="140" y1="60" x2="140" y2="50" style="stroke:rgb(0, 0, 0);stroke-linecap:square;stroke-width:2" />
	<text x="140" y="64" style="font-family:Arial;font-size:11px;text-anchor:end" dominant-baseline="middle" transform="rotate(270, 140, 64)">SCL</text>
	<line x1="130" y1="60" x2="130" y2="50" style="stroke:rgb(0, 0, 0);stroke-linecap:square;stroke-width:2" />
	<text x="130" y="64" style="font-family:Arial;font-size:11px;text-anchor:end" dominant-baseline="middle" transform="rotate(270, 130, 64)">SDA</text>
	<ellipse cx="520" cy="110" rx="2" ry="2" style="fill-opacity:1;fill:rgb(0, 0, 0);stroke:rgb(0, 0, 0);stroke-width:2" />
	<ellipse cx="520" cy="120" rx="2" ry="2" style="fill-opacity:1;fill:rgb(0, 0, 0);stroke:rgb(0, 0, 0);stroke-width:2" />
	<ellipse cx="640" cy="110" rx="2" ry="2" style="fill-opacity:1;fill:rgb(0, 0, 0);stroke:rgb(0, 0, 0);stroke-width:2" />
	<ellipse cx="300" cy="410" rx="2" ry="2" style="fill-opacity:1;fill:rgb(0, 0, 0);stroke:rgb(0, 0, 0);stroke-width:2" />
	<ellipse cx="310" cy="400" rx="2" ry="2" style="fill-opacity:1;fill:rgb(0, 0, 0);stroke:rgb(0, 0, 0);stroke-width:2" />
	<ellipse cx="640" cy="100" rx="2" ry="2" style="fill-opacity:1;fill:rgb(0, 0, 0);stroke:rgb(0, 0, 0);stroke-width:2" />
	<ellipse cx="640" cy="120" rx="2" ry="2" style="fill-opacity:1;fill:rgb(0, 0, 0);stroke:rgb(0, 0, 0);stroke-width:2" />
	<ellipse cx="640" cy="410" rx="2" ry="2" style="fill-opacity:1;fill:rgb(0, 0, 0);stroke:rgb(0, 0, 0);stroke-width:2" />
	<ellipse cx="450" cy="200" rx="2" ry="2" style="fill-opacity:1;fill:rgb(0, 0, 0);stroke:rgb(0, 0, 0);stroke-width:2" />
	<ellipse cx="410" cy="430" rx="2" ry="2" style="fill-opacity:1;fill:rgb(0, 0, 0);stroke:rgb(0, 0, 0);stroke-width:2" />
	<ellipse cx="450" cy="50" rx="2" ry="2" style="fill-opacity:1;fill:rgb(0, 0, 0);stroke:rgb(0, 0, 0);stroke-width:2" />
	<ellipse cx="640" cy="70" rx="2" ry="2" style="fill-opacity:1;fill:rgb(0, 0, 0);stroke:rgb(0, 0, 0);stroke-width:2" />
	<ellipse cx="480" cy="140" rx="2" ry="2" style="fill-opacity:1;fill:rgb(0, 0, 0);stroke:rgb(0, 0, 0);stroke-width:2" />
	<ellipse cx="630" cy="120" rx="2" ry="2" style="fill-opacity:1;fill:rgb(0, 0, 0);stroke:rgb(0, 0, 0);stroke-width:2" />
	<ellipse cx="480" cy="90" rx="2" ry="2" style="fill-opacity:1;fill:rgb(0, 0, 0);stroke:rgb(0, 0, 0);stroke-width:2" />
</svg>